<svg width="31" height="30" viewBox="0 0 31 30" fill="none" xmlns="http://www.w3.org/2000/svg">
<path d="M30.0638 7.78711C30.0638 3.49329 26.5798 0 22.2975 0C19.0757 0 16.2106 2.02039 15.0639 4.953C13.9171 2.02039 11.0518 0 7.83015 0C3.54788 0 0.0638428 3.49329 0.0638428 7.78711C0.0638428 11.0134 2.00546 13.8292 4.91059 15C2.00546 16.1708 0.0638428 18.9866 0.0638428 22.2129C0.0638428 26.5067 3.54788 30 7.83015 30C11.0518 30 13.9171 27.9796 15.0639 25.047C16.2106 27.9796 19.0757 30 22.2975 30C26.5798 30 30.0638 26.5067 30.0638 22.2129C30.0638 18.9866 28.1222 16.1708 25.2171 15C28.1222 13.8292 30.0638 11.0134 30.0638 7.78711ZM23.8904 14.6349C23.7211 14.6741 23.6011 14.8257 23.6011 15C23.6011 15.1743 23.7211 15.3259 23.8904 15.3651C27.0848 16.1096 29.3158 18.9254 29.3158 22.2129C29.3158 26.0933 26.1674 29.25 22.2975 29.25C18.9947 29.25 16.1063 26.9004 15.4299 23.6635C15.3937 23.4899 15.2409 23.3654 15.0639 23.3654C14.887 23.3654 14.7341 23.4899 14.698 23.6635C14.0214 26.9004 11.133 29.25 7.83015 29.25C3.96024 29.25 0.811857 26.0933 0.811857 22.2129C0.811857 18.9254 3.04293 16.1096 6.23733 15.3651C6.40662 15.3259 6.5266 15.1743 6.5266 15C6.5266 14.8257 6.40662 14.6741 6.23733 14.6349C3.04293 13.8904 0.811857 11.0746 0.811857 7.78711C0.811857 3.90674 3.96024 0.75 7.83015 0.75C11.133 0.75 14.0214 3.09961 14.698 6.33655C14.7341 6.51013 14.887 6.63464 15.0639 6.63464C15.2409 6.63464 15.3937 6.51013 15.4299 6.33655C16.1063 3.09961 18.9947 0.75 22.2975 0.75C26.1674 0.75 29.3158 3.90674 29.3158 7.78711C29.3158 11.0746 27.0848 13.8904 23.8904 14.6349Z" fill="#3DB370" stroke="#3DB370"/>
</svg>
